<?xml version="1.0" encoding="us-ascii" standalone="no"?><svg xmlns="http://www.w3.org/2000/svg" xmlns:xlink="http://www.w3.org/1999/xlink" contentStyleType="text/css" height="394px" preserveAspectRatio="none" style="width:470px;height:394px;background:#FFFFFF;" version="1.1" viewBox="0 0 470 394" width="470px" zoomAndPan="magnify"><defs/><g><text fill="#000000" font-family="sans-serif" font-size="14" font-weight="bold" lengthAdjust="spacing" textLength="442" x="10" y="27.9951">MySQL &#20107;&#21153;&#25552;&#20132;&#36807;&#31243;&#20013;&#26085;&#24535;&#20889;&#20837;&#39034;&#24207;&#65288;Redo / Undo / Binlog&#65289;</text><line style="stroke:#181818;stroke-width:0.5;stroke-dasharray:5.0,5.0;" x1="53.25" x2="53.25" y1="118.5938" y2="313.3906"/><line style="stroke:#181818;stroke-width:0.5;stroke-dasharray:5.0,5.0;" x1="275.75" x2="275.75" y1="118.5938" y2="313.3906"/><line style="stroke:#181818;stroke-width:0.5;stroke-dasharray:5.0,5.0;" x1="372.75" x2="372.75" y1="118.5938" y2="313.3906"/><text fill="#000000" font-family="sans-serif" font-size="14" lengthAdjust="spacing" textLength="28" x="36.25" y="115.292">&#20107;&#21153;</text><ellipse cx="53.25" cy="50.7969" fill="#E2E2F0" rx="8" ry="8" style="stroke:#181818;stroke-width:0.5;"/><path d="M53.25,58.7969 L53.25,85.7969 M40.25,66.7969 L66.25,66.7969 M53.25,85.7969 L40.25,100.7969 M53.25,85.7969 L66.25,100.7969 " fill="none" style="stroke:#181818;stroke-width:0.5;"/><text fill="#000000" font-family="sans-serif" font-size="14" lengthAdjust="spacing" textLength="28" x="36.25" y="325.3857">&#20107;&#21153;</text><ellipse cx="53.25" cy="337.1875" fill="#E2E2F0" rx="8" ry="8" style="stroke:#181818;stroke-width:0.5;"/><path d="M53.25,345.1875 L53.25,372.1875 M40.25,353.1875 L66.25,353.1875 M53.25,372.1875 L40.25,387.1875 M53.25,372.1875 L66.25,387.1875 " fill="none" style="stroke:#181818;stroke-width:0.5;"/><rect fill="#E2E2F0" height="30.2969" rx="2.5" ry="2.5" style="stroke:#181818;stroke-width:0.5;" width="65" x="243.75" y="87.2969"/><text fill="#000000" font-family="sans-serif" font-size="14" lengthAdjust="spacing" textLength="51" x="250.75" y="107.292">InnoDB</text><rect fill="#E2E2F0" height="30.2969" rx="2.5" ry="2.5" style="stroke:#181818;stroke-width:0.5;" width="65" x="243.75" y="312.3906"/><text fill="#000000" font-family="sans-serif" font-size="14" lengthAdjust="spacing" textLength="51" x="250.75" y="332.3857">InnoDB</text><rect fill="#E2E2F0" height="30.2969" rx="2.5" ry="2.5" style="stroke:#181818;stroke-width:0.5;" width="108" x="318.75" y="87.2969"/><text fill="#000000" font-family="sans-serif" font-size="14" lengthAdjust="spacing" textLength="94" x="325.75" y="107.292">MySQL Server</text><rect fill="#E2E2F0" height="30.2969" rx="2.5" ry="2.5" style="stroke:#181818;stroke-width:0.5;" width="108" x="318.75" y="312.3906"/><text fill="#000000" font-family="sans-serif" font-size="14" lengthAdjust="spacing" textLength="94" x="325.75" y="332.3857">MySQL Server</text><polygon fill="#181818" points="264.25,145.7266,274.25,149.7266,264.25,153.7266,268.25,149.7266" style="stroke:#181818;stroke-width:1.0;"/><line style="stroke:#181818;stroke-width:1.0;" x1="53.25" x2="270.25" y1="149.7266" y2="149.7266"/><text fill="#000000" font-family="sans-serif" font-size="13" lengthAdjust="spacing" textLength="185" x="60.25" y="144.6606">1. &#20889; Undo Log&#65288;&#20462;&#25913;&#21069;&#25968;&#25454;&#65289;</text><polygon fill="#181818" points="264.25,174.8594,274.25,178.8594,264.25,182.8594,268.25,178.8594" style="stroke:#181818;stroke-width:1.0;"/><line style="stroke:#181818;stroke-width:1.0;" x1="53.25" x2="270.25" y1="178.8594" y2="178.8594"/><text fill="#000000" font-family="sans-serif" font-size="13" lengthAdjust="spacing" textLength="158" x="60.25" y="173.7935">2. &#20462;&#25913; Buffer Pool &#25968;&#25454;&#39029;</text><polygon fill="#181818" points="264.25,203.9922,274.25,207.9922,264.25,211.9922,268.25,207.9922" style="stroke:#181818;stroke-width:1.0;"/><line style="stroke:#181818;stroke-width:1.0;" x1="53.25" x2="270.25" y1="207.9922" y2="207.9922"/><text fill="#000000" font-family="sans-serif" font-size="13" lengthAdjust="spacing" textLength="198" x="60.25" y="202.9263">3. &#20889; Redo Log&#65288;Prepare &#29366;&#24577;&#65289;</text><polygon fill="#181818" points="360.75,233.125,370.75,237.125,360.75,241.125,364.75,237.125" style="stroke:#181818;stroke-width:1.0;"/><line style="stroke:#181818;stroke-width:1.0;" x1="53.25" x2="366.75" y1="237.125" y2="237.125"/><text fill="#000000" font-family="sans-serif" font-size="13" lengthAdjust="spacing" textLength="115" x="60.25" y="232.0591">4. &#20889; Binlog &#21040;&#25991;&#20214;</text><polygon fill="#181818" points="264.25,262.2578,274.25,266.2578,264.25,270.2578,268.25,266.2578" style="stroke:#181818;stroke-width:1.0;"/><line style="stroke:#181818;stroke-width:1.0;" x1="53.25" x2="270.25" y1="266.2578" y2="266.2578"/><text fill="#000000" font-family="sans-serif" font-size="13" lengthAdjust="spacing" textLength="199" x="60.25" y="261.1919">5. &#20889; Redo Log&#65288;Commit &#29366;&#24577;&#65289;</text><polygon fill="#181818" points="64.25,291.3906,54.25,295.3906,64.25,299.3906,60.25,295.3906" style="stroke:#181818;stroke-width:1.0;"/><line style="stroke:#181818;stroke-width:1.0;stroke-dasharray:2.0,2.0;" x1="58.25" x2="275.25" y1="295.3906" y2="295.3906"/><text fill="#000000" font-family="sans-serif" font-size="13" lengthAdjust="spacing" textLength="78" x="70.25" y="290.3247">&#20107;&#21153;&#25552;&#20132;&#25104;&#21151;</text></g></svg>